<svg width="33" height="34" viewBox="0 0 33 34" fill="none" xmlns="http://www.w3.org/2000/svg">
<path d="M0 16.0782C0 25.9025 7.59464 33.5 16.5 33.5C25.4043 33.5 33 25.9025 33 16.0782C33 7.06814 27.0675 0.5 20.4978 0.5C19.0041 0.5 17.5343 0.840958 16.5 1.29067C15.4651 0.840958 13.9937 0.5 12.5028 0.5C5.93135 0.5 0 7.06814 0 16.0782ZM19.4395 11.5553C19.4395 13.4634 18.2478 14.9672 16.5006 14.9672C14.7544 14.9672 13.5616 13.4634 13.5616 11.5553C13.5616 8.9534 15.2343 6.64429 16.5006 5.8501C17.7673 6.64488 19.4395 8.9534 19.4395 11.5553ZM4.05674 15.9948C4.05674 9.21441 8.68515 4.5815 12.3226 4.75374C10.5987 6.56905 9.55433 9.21382 9.55433 11.771C9.55433 16.1735 12.8587 19.2603 16.5 19.2603C20.1397 19.2603 23.4462 16.1735 23.4462 11.771C23.4462 9.21382 22.4019 6.56905 20.678 4.75374C24.3154 4.5815 28.9444 9.21441 28.9444 15.9948C28.9444 23.4176 23.31 29.2092 16.5006 29.2092C9.69057 29.2086 4.05674 23.4176 4.05674 15.9948Z" fill="#007BC2"/>
</svg>
